<mxfile host="Electron" agent="Mozilla/5.0 (Windows NT 10.0; Win64; x64) AppleWebKit/537.36 (KHTML, like Gecko) draw.io/24.7.8 Chrome/128.0.6613.36 Electron/32.0.1 Safari/537.36" version="24.7.8">
  <diagram name="Page-1" id="oOPxfwqb6PphhWTHtV_J">
    <mxGraphModel dx="1512" dy="1467" grid="1" gridSize="10" guides="1" tooltips="1" connect="1" arrows="1" fold="1" page="1" pageScale="1" pageWidth="850" pageHeight="1100" math="0" shadow="0">
      <root>
        <mxCell id="0" />
        <mxCell id="1" parent="0" />
        <mxCell id="s29AV6u27U3s9WuefclP-45" value="" style="edgeStyle=orthogonalEdgeStyle;rounded=0;orthogonalLoop=1;jettySize=auto;html=1;" edge="1" parent="1" source="s29AV6u27U3s9WuefclP-35" target="s29AV6u27U3s9WuefclP-14">
          <mxGeometry relative="1" as="geometry" />
        </mxCell>
        <mxCell id="s29AV6u27U3s9WuefclP-35" value="" style="rounded=1;whiteSpace=wrap;html=1;fillColor=#eeeeee;strokeColor=#36393d;" vertex="1" parent="1">
          <mxGeometry x="40" y="640" width="290" height="240" as="geometry" />
        </mxCell>
        <mxCell id="s29AV6u27U3s9WuefclP-29" style="edgeStyle=orthogonalEdgeStyle;rounded=0;orthogonalLoop=1;jettySize=auto;html=1;exitX=0.5;exitY=1;exitDx=0;exitDy=0;entryX=0.5;entryY=0;entryDx=0;entryDy=0;" edge="1" parent="1" source="s29AV6u27U3s9WuefclP-2" target="s29AV6u27U3s9WuefclP-4">
          <mxGeometry relative="1" as="geometry" />
        </mxCell>
        <mxCell id="s29AV6u27U3s9WuefclP-51" value="" style="edgeStyle=orthogonalEdgeStyle;rounded=0;orthogonalLoop=1;jettySize=auto;html=1;" edge="1" parent="1" source="s29AV6u27U3s9WuefclP-2" target="s29AV6u27U3s9WuefclP-3">
          <mxGeometry relative="1" as="geometry" />
        </mxCell>
        <mxCell id="s29AV6u27U3s9WuefclP-2" value="League (&lt;b&gt;api_id&lt;/b&gt;)" style="rounded=1;whiteSpace=wrap;html=1;fontSize=12;glass=0;strokeWidth=1;shadow=0;" vertex="1" parent="1">
          <mxGeometry x="40" y="60" width="120" height="40" as="geometry" />
        </mxCell>
        <mxCell id="s29AV6u27U3s9WuefclP-3" value="LeagueSeason&lt;br&gt;&lt;font color=&quot;#cc0000&quot;&gt;(FK: League)&lt;/font&gt;" style="rounded=1;whiteSpace=wrap;html=1;fontSize=12;glass=0;strokeWidth=1;shadow=0;" vertex="1" parent="1">
          <mxGeometry x="200" y="120" width="120" height="80" as="geometry" />
        </mxCell>
        <mxCell id="s29AV6u27U3s9WuefclP-30" style="edgeStyle=orthogonalEdgeStyle;rounded=0;orthogonalLoop=1;jettySize=auto;html=1;exitX=0.5;exitY=1;exitDx=0;exitDy=0;entryX=0.5;entryY=0;entryDx=0;entryDy=0;" edge="1" parent="1" source="s29AV6u27U3s9WuefclP-4" target="s29AV6u27U3s9WuefclP-5">
          <mxGeometry relative="1" as="geometry" />
        </mxCell>
        <mxCell id="s29AV6u27U3s9WuefclP-4" value="LeagueStanding&lt;br&gt;&lt;font color=&quot;#cc0000&quot;&gt;&amp;nbsp;&lt;/font&gt;&lt;div&gt;&lt;i&gt;&lt;font color=&quot;#cc0000&quot;&gt;(FK: League)&lt;/font&gt;&lt;/i&gt;&lt;/div&gt;" style="rounded=1;whiteSpace=wrap;html=1;fontSize=12;glass=0;strokeWidth=1;shadow=0;fillColor=#b1ddf0;strokeColor=#10739e;" vertex="1" parent="1">
          <mxGeometry x="40" y="120" width="120" height="80" as="geometry" />
        </mxCell>
        <mxCell id="s29AV6u27U3s9WuefclP-31" style="edgeStyle=orthogonalEdgeStyle;rounded=0;orthogonalLoop=1;jettySize=auto;html=1;exitX=0.5;exitY=1;exitDx=0;exitDy=0;entryX=0.5;entryY=0;entryDx=0;entryDy=0;" edge="1" parent="1" source="s29AV6u27U3s9WuefclP-5" target="s29AV6u27U3s9WuefclP-6">
          <mxGeometry relative="1" as="geometry" />
        </mxCell>
        <mxCell id="s29AV6u27U3s9WuefclP-5" value="Team (&lt;b&gt;api_id)&lt;/b&gt;" style="rounded=1;whiteSpace=wrap;html=1;fontSize=12;glass=0;strokeWidth=1;shadow=0;" vertex="1" parent="1">
          <mxGeometry x="40" y="220" width="120" height="40" as="geometry" />
        </mxCell>
        <mxCell id="s29AV6u27U3s9WuefclP-32" style="edgeStyle=orthogonalEdgeStyle;rounded=0;orthogonalLoop=1;jettySize=auto;html=1;exitX=0.5;exitY=1;exitDx=0;exitDy=0;entryX=0.5;entryY=0;entryDx=0;entryDy=0;" edge="1" parent="1" source="s29AV6u27U3s9WuefclP-6" target="s29AV6u27U3s9WuefclP-7">
          <mxGeometry relative="1" as="geometry" />
        </mxCell>
        <mxCell id="s29AV6u27U3s9WuefclP-6" value="TeamSeason&lt;br&gt;Statistics&lt;br&gt;&lt;br&gt;&lt;i&gt;&lt;font color=&quot;#cc0000&quot;&gt;(FK: Team, League)&lt;/font&gt;&lt;/i&gt;" style="rounded=1;whiteSpace=wrap;html=1;fontSize=12;glass=0;strokeWidth=1;shadow=0;fillColor=#b1ddf0;strokeColor=#10739e;" vertex="1" parent="1">
          <mxGeometry x="40" y="280" width="120" height="80" as="geometry" />
        </mxCell>
        <mxCell id="s29AV6u27U3s9WuefclP-33" style="edgeStyle=orthogonalEdgeStyle;rounded=0;orthogonalLoop=1;jettySize=auto;html=1;exitX=0.5;exitY=1;exitDx=0;exitDy=0;entryX=0.5;entryY=0;entryDx=0;entryDy=0;" edge="1" parent="1" source="s29AV6u27U3s9WuefclP-7" target="s29AV6u27U3s9WuefclP-8">
          <mxGeometry relative="1" as="geometry" />
        </mxCell>
        <mxCell id="s29AV6u27U3s9WuefclP-7" value="Match (&lt;b&gt;api_id&lt;/b&gt;)&lt;br&gt;&lt;br&gt;&lt;i&gt;&lt;font color=&quot;#cc0000&quot;&gt;(FK: Team, League)&lt;/font&gt;&lt;/i&gt;" style="rounded=1;whiteSpace=wrap;html=1;fontSize=12;glass=0;strokeWidth=1;shadow=0;fillColor=#b1ddf0;strokeColor=#10739e;" vertex="1" parent="1">
          <mxGeometry x="40" y="380" width="120" height="80" as="geometry" />
        </mxCell>
        <mxCell id="s29AV6u27U3s9WuefclP-34" style="edgeStyle=orthogonalEdgeStyle;rounded=0;orthogonalLoop=1;jettySize=auto;html=1;exitX=0.5;exitY=1;exitDx=0;exitDy=0;entryX=0.5;entryY=0;entryDx=0;entryDy=0;" edge="1" parent="1" source="s29AV6u27U3s9WuefclP-8" target="s29AV6u27U3s9WuefclP-9">
          <mxGeometry relative="1" as="geometry" />
        </mxCell>
        <mxCell id="s29AV6u27U3s9WuefclP-8" value="Player (&lt;b&gt;api_id)&lt;/b&gt;" style="rounded=1;whiteSpace=wrap;html=1;fontSize=12;glass=0;strokeWidth=1;shadow=0;fillColor=#b1ddf0;strokeColor=#10739e;" vertex="1" parent="1">
          <mxGeometry x="40" y="480" width="120" height="40" as="geometry" />
        </mxCell>
        <mxCell id="s29AV6u27U3s9WuefclP-37" style="edgeStyle=orthogonalEdgeStyle;rounded=0;orthogonalLoop=1;jettySize=auto;html=1;exitX=1;exitY=0.5;exitDx=0;exitDy=0;entryX=0.5;entryY=0;entryDx=0;entryDy=0;" edge="1" parent="1" source="s29AV6u27U3s9WuefclP-9" target="s29AV6u27U3s9WuefclP-35">
          <mxGeometry relative="1" as="geometry" />
        </mxCell>
        <mxCell id="s29AV6u27U3s9WuefclP-9" value="PlayerSeason&lt;br&gt;Statistics&lt;br&gt;&lt;div&gt;&lt;br&gt;&lt;i&gt;&lt;font color=&quot;#cc0000&quot;&gt;(FK: Team, League, Player)&lt;/font&gt;&lt;/i&gt;&lt;br&gt;&lt;/div&gt;" style="rounded=1;whiteSpace=wrap;html=1;fontSize=12;glass=0;strokeWidth=1;shadow=0;fillColor=#b1ddf0;strokeColor=#10739e;" vertex="1" parent="1">
          <mxGeometry x="40" y="540" width="120" height="80" as="geometry" />
        </mxCell>
        <mxCell id="s29AV6u27U3s9WuefclP-49" value="" style="edgeStyle=orthogonalEdgeStyle;rounded=0;orthogonalLoop=1;jettySize=auto;html=1;" edge="1" parent="1" source="s29AV6u27U3s9WuefclP-10" target="s29AV6u27U3s9WuefclP-11">
          <mxGeometry relative="1" as="geometry" />
        </mxCell>
        <mxCell id="s29AV6u27U3s9WuefclP-10" value="Sidelined&lt;br&gt;&lt;br&gt;&lt;i&gt;&lt;font color=&quot;#cc0000&quot;&gt;(FK: League)&lt;/font&gt;&lt;/i&gt;" style="rounded=1;whiteSpace=wrap;html=1;fontSize=12;glass=0;strokeWidth=1;shadow=0;fillColor=#ffcc99;strokeColor=#36393d;" vertex="1" parent="1">
          <mxGeometry x="490" y="620" width="120" height="80" as="geometry" />
        </mxCell>
        <mxCell id="s29AV6u27U3s9WuefclP-11" value="LatestSidelined&lt;br&gt;&lt;br&gt;&lt;i&gt;&lt;font color=&quot;#cc0000&quot;&gt;(FK: League)&lt;/font&gt;&lt;/i&gt;" style="rounded=1;whiteSpace=wrap;html=1;fontSize=12;glass=0;strokeWidth=1;shadow=0;fillColor=#b1ddf0;strokeColor=#10739e;" vertex="1" parent="1">
          <mxGeometry x="490" y="520" width="120" height="80" as="geometry" />
        </mxCell>
        <mxCell id="s29AV6u27U3s9WuefclP-47" value="" style="edgeStyle=orthogonalEdgeStyle;rounded=0;orthogonalLoop=1;jettySize=auto;html=1;" edge="1" parent="1" source="s29AV6u27U3s9WuefclP-13" target="s29AV6u27U3s9WuefclP-10">
          <mxGeometry relative="1" as="geometry" />
        </mxCell>
        <mxCell id="s29AV6u27U3s9WuefclP-13" value="Transfer&lt;br&gt;&lt;br&gt;&lt;i&gt;&lt;font color=&quot;#cc0000&quot;&gt;(FK: League)&lt;/font&gt;&lt;/i&gt;" style="rounded=1;whiteSpace=wrap;html=1;fontSize=12;glass=0;strokeWidth=1;shadow=0;fillColor=#b1ddf0;strokeColor=#10739e;" vertex="1" parent="1">
          <mxGeometry x="490" y="720" width="120" height="80" as="geometry" />
        </mxCell>
        <mxCell id="s29AV6u27U3s9WuefclP-46" value="" style="edgeStyle=orthogonalEdgeStyle;rounded=0;orthogonalLoop=1;jettySize=auto;html=1;" edge="1" parent="1" source="s29AV6u27U3s9WuefclP-14" target="s29AV6u27U3s9WuefclP-13">
          <mxGeometry relative="1" as="geometry" />
        </mxCell>
        <mxCell id="s29AV6u27U3s9WuefclP-14" value="TeamMapping" style="rounded=1;whiteSpace=wrap;html=1;fontSize=12;glass=0;strokeWidth=1;shadow=0;fillColor=#ffcccc;strokeColor=#36393d;" vertex="1" parent="1">
          <mxGeometry x="350" y="740" width="120" height="40" as="geometry" />
        </mxCell>
        <mxCell id="s29AV6u27U3s9WuefclP-15" value="FixtureEvents&lt;br&gt;&lt;br&gt;&lt;i&gt;&lt;font color=&quot;#cc0000&quot;&gt;(FK:&amp;nbsp; Match, Team, Player)&lt;/font&gt;&lt;/i&gt;" style="rounded=1;whiteSpace=wrap;html=1;fontSize=12;glass=0;strokeWidth=1;shadow=0;fillColor=#b1ddf0;strokeColor=#10739e;" vertex="1" parent="1">
          <mxGeometry x="60" y="675" width="120" height="80" as="geometry" />
        </mxCell>
        <mxCell id="s29AV6u27U3s9WuefclP-16" value="FixtureLineup&lt;br&gt;Player&lt;br&gt;&lt;br&gt;&lt;i&gt;&lt;font color=&quot;#cc0000&quot;&gt;(FK:&amp;nbsp; Match, Team, Player)&lt;/font&gt;&lt;/i&gt;" style="rounded=1;whiteSpace=wrap;html=1;fontSize=12;glass=0;strokeWidth=1;shadow=0;fillColor=#b1ddf0;strokeColor=#10739e;" vertex="1" parent="1">
          <mxGeometry x="190" y="675" width="120" height="80" as="geometry" />
        </mxCell>
        <mxCell id="s29AV6u27U3s9WuefclP-17" value="FixtureTeam&lt;br&gt;Statistic&lt;br&gt;&lt;br&gt;&lt;i&gt;&lt;font color=&quot;#cc0000&quot;&gt;(FK:&amp;nbsp; Match, Team)&lt;/font&gt;&lt;/i&gt;" style="rounded=1;whiteSpace=wrap;html=1;fontSize=12;glass=0;strokeWidth=1;shadow=0;fillColor=#b1ddf0;strokeColor=#10739e;" vertex="1" parent="1">
          <mxGeometry x="60" y="765" width="120" height="80" as="geometry" />
        </mxCell>
        <mxCell id="s29AV6u27U3s9WuefclP-18" value="FixturePlayer&lt;br&gt;Statistics&lt;br&gt;&lt;br&gt;&lt;i&gt;&lt;font color=&quot;#cc0000&quot;&gt;(FK:&amp;nbsp; Match, Team, Player)&lt;/font&gt;&lt;/i&gt;" style="rounded=1;whiteSpace=wrap;html=1;fontSize=12;glass=0;strokeWidth=1;shadow=0;fillColor=#b1ddf0;strokeColor=#10739e;" vertex="1" parent="1">
          <mxGeometry x="190" y="765" width="120" height="80" as="geometry" />
        </mxCell>
        <mxCell id="s29AV6u27U3s9WuefclP-52" value="&lt;div style=&quot;&quot;&gt;&lt;b style=&quot;background-color: initial;&quot;&gt;&lt;font style=&quot;font-size: 35px;&quot;&gt;System Work Run Flow&lt;br&gt;&lt;/font&gt;&lt;/b&gt;&lt;br&gt;&lt;br&gt;&lt;br&gt;&lt;br&gt;&lt;br&gt;&lt;br&gt;&lt;br&gt;&lt;br&gt;&lt;br&gt;&lt;br&gt;&lt;br&gt;&lt;br&gt;&lt;br&gt;&lt;br&gt;&lt;br&gt;&lt;br&gt;&lt;br&gt;&lt;br&gt;&lt;/div&gt;" style="rounded=1;whiteSpace=wrap;html=1;fillColor=#0050ef;strokeColor=#001DBC;fontColor=#ffffff;align=center;" vertex="1" parent="1">
          <mxGeometry x="520" y="60" width="280" height="370" as="geometry" />
        </mxCell>
        <mxCell id="s29AV6u27U3s9WuefclP-57" value="&lt;b&gt;&lt;font style=&quot;font-size: 16px;&quot;&gt;Call 1 per Season&amp;nbsp;&lt;/font&gt;&lt;/b&gt;" style="rounded=1;whiteSpace=wrap;html=1;fontSize=12;glass=0;strokeWidth=1;shadow=0;" vertex="1" parent="1">
          <mxGeometry x="560" y="180" width="200" height="40" as="geometry" />
        </mxCell>
        <mxCell id="s29AV6u27U3s9WuefclP-58" value="&lt;b&gt;&lt;font style=&quot;font-size: 16px;&quot;&gt;Call 1 per day&amp;nbsp;&lt;/font&gt;&lt;/b&gt;" style="rounded=1;whiteSpace=wrap;html=1;fontSize=12;glass=0;strokeWidth=1;shadow=0;fillColor=#b1ddf0;strokeColor=#10739e;" vertex="1" parent="1">
          <mxGeometry x="560" y="240" width="200" height="40" as="geometry" />
        </mxCell>
        <mxCell id="s29AV6u27U3s9WuefclP-59" value="&lt;span style=&quot;font-size: 16px;&quot;&gt;&lt;b&gt;Big data, need split Call&amp;nbsp; 2 or 3 days&lt;/b&gt;&lt;/span&gt;" style="rounded=1;whiteSpace=wrap;html=1;fontSize=12;glass=0;strokeWidth=1;shadow=0;fillColor=#fad7ac;strokeColor=#b46504;" vertex="1" parent="1">
          <mxGeometry x="560" y="300" width="200" height="40" as="geometry" />
        </mxCell>
        <mxCell id="s29AV6u27U3s9WuefclP-60" value="&lt;span style=&quot;font-size: 16px;&quot;&gt;&lt;b&gt;Important (Need done first)&lt;/b&gt;&lt;/span&gt;" style="rounded=1;whiteSpace=wrap;html=1;fontSize=12;glass=0;strokeWidth=1;shadow=0;fillColor=#fad9d5;strokeColor=#ae4132;" vertex="1" parent="1">
          <mxGeometry x="560" y="360" width="200" height="40" as="geometry" />
        </mxCell>
      </root>
    </mxGraphModel>
  </diagram>
</mxfile>
